<svg xmlns="http://www.w3.org/2000/svg" xmlns:xlink="http://www.w3.org/1999/xlink" width="140" height="20" viewBox="0 0 140 20">
    <defs>
        <path id="a" d="M0 19.886h140V0H0z"/>
    </defs>
    <g fill="none" fill-rule="evenodd">
        <mask id="b" fill="#fff">
            <use xlink:href="#a"/>
        </mask>
        <path fill="#B1B1B1" fill-rule="nonzero" d="M56.517 4.775V5.82h-4.462V.127H56.5v1.045h-3.253v1.283h2.999v1.028h-2.999v1.292h3.27zM50.677.127V5.82h-1.192V3.483H46.68V5.82h-1.193V.127h1.193v2.311h2.805V.128h1.192zm-6.004 1.045h-1.954V5.82h-1.193V1.172H39.57V.127h5.102v1.045zm-10.99 0v1.394h2.85V3.61h-2.85V5.82h-1.192V.127h4.384v1.045h-3.192zm-5.36 3.688c.533 0 .98-.179 1.34-.536.368-.356.552-.806.552-1.342a1.83 1.83 0 0 0-.552-1.351c-.36-.365-.807-.544-1.34-.544a1.856 1.856 0 0 0-1.894 1.895c0 .536.183.986.542 1.342.369.357.816.536 1.351.536zm2.19.23c-.596.569-1.324.858-2.19.858-.87 0-1.597-.289-2.202-.859a2.832 2.832 0 0 1-.893-2.107c0-.833.298-1.538.893-2.115C26.726.289 27.454 0 28.322 0c.867 0 1.595.29 2.191.867a2.81 2.81 0 0 1 .903 2.115c0 .824-.298 1.53-.903 2.107zM22.4 1.171h-1.954V5.82h-1.193V1.172h-1.954V.127h5.101v1.045zm-9.465 1.513h1.622c.552 0 .92-.306.92-.757 0-.45-.368-.756-.92-.756h-1.622v1.513zM16.95 5.82h-1.455l-1.938-2.09h-.622v2.09h-1.192V.127h2.814c.63 0 1.14.17 1.525.501.386.332.578.765.578 1.3 0 .952-.656 1.632-1.683 1.776L16.95 5.82zM8.767 3.56l-.85-2.03-.859 2.03h1.709zm2.244 2.26H9.723l-.51-1.215H6.62L6.102 5.82H4.814L7.355.127H8.47L11.01 5.82zM1.192 2.914h1.543c.632 0 .99-.34.99-.875 0-.518-.358-.867-.99-.867H1.192v1.742zM0 .127h2.735c.667 0 1.192.179 1.587.527.394.348.587.807.587 1.385 0 1.164-.832 1.92-2.174 1.92H1.192V5.82H0V.127zm104.626 12.616c0-.741-.613-1.24-1.526-1.24h-2.758v2.48h2.758c.913 0 1.526-.498 1.526-1.24zm1.212 2.348a3.55 3.55 0 0 1-1.254.685l2.77 3.886h-2.775l-2.578-3.67h-1.659v3.67H98.07V9.493h5.03c1.12 0 2.041.304 2.739.903.694.596 1.045 1.386 1.045 2.347 0 .961-.351 1.75-1.045 2.348zM17.53 12.743c0-.741-.613-1.24-1.526-1.24h-2.757v2.48h2.757c.913 0 1.526-.498 1.526-1.24zm1.212 2.348a3.555 3.555 0 0 1-1.253.685l2.768 3.886h-2.774l-2.577-3.67h-1.66v3.67h-2.273V9.493h5.03c1.12 0 2.041.304 2.738.903.694.596 1.047 1.386 1.047 2.347 0 .961-.353 1.75-1.047 2.348zm119-2.154c0-.885-.632-1.435-1.65-1.435h-2.664v2.884h2.664c1.033 0 1.65-.541 1.65-1.45zm1.197-2.496c.713.63 1.06 1.447 1.06 2.496 0 2.1-1.533 3.459-3.907 3.459h-2.664v3.266h-2.272V9.493h4.936c1.177 0 2.135.319 2.847.948zm-42.354 3.535l.005.08c.014.215.022.4.022.551 0 .446-.05.89-.15 1.324a4.975 4.975 0 0 1-1.353 2.452c-.998.997-2.283 1.503-3.82 1.503-1.546 0-2.877-.515-3.957-1.531-1.07-1.007-1.612-2.278-1.612-3.777 0-1.484.537-2.75 1.596-3.761 1.06-1.026 2.376-1.547 3.911-1.547 1.17 0 2.187.258 3.11.788.647.372 1.164.869 1.538 1.476l.044.071-1.846 1.195-.05-.073c-.627-.924-1.541-1.373-2.796-1.373-.903 0-1.668.311-2.274.927-.626.636-.93 1.387-.93 2.297 0 .916.323 1.693.96 2.31.644.625 1.419.93 2.367.93 1.339 0 2.398-.678 2.858-1.819h-3.132v-2.023h5.509zm-43.167 0l.005.081c.015.217.022.403.022.55 0 .446-.05.89-.149 1.324a4.98 4.98 0 0 1-1.353 2.452c-.999.997-2.284 1.503-3.82 1.503-1.547 0-2.878-.515-3.957-1.531-1.07-1.007-1.613-2.278-1.613-3.777 0-1.484.538-2.75 1.597-3.761 1.06-1.026 2.374-1.547 3.91-1.547 1.17 0 2.188.258 3.11.788a4.298 4.298 0 0 1 1.538 1.476l.044.071-1.846 1.195-.05-.073c-.627-.924-1.54-1.373-2.795-1.373-.904 0-1.669.311-2.275.927-.625.636-.929 1.387-.929 2.297 0 .916.323 1.693.958 2.31.645.625 1.42.93 2.369.93 1.338 0 2.398-.678 2.858-1.819H47.91v-2.023h5.509zm73.688 1.124V9.493h2.272V15.1c0 1.423-.417 2.588-1.24 3.46-.84.892-1.914 1.326-3.282 1.326-1.385 0-2.514-.446-3.36-1.326-.843-.878-1.27-2.042-1.27-3.46V9.493h2.273V15.1c0 1.624.925 2.672 2.357 2.672 1.366 0 2.25-1.048 2.25-2.672zm-10.478-.508c0-.911-.317-1.688-.944-2.31-.615-.625-1.364-.929-2.29-.929-.922 0-1.677.304-2.306.928-.616.626-.93 1.405-.93 2.311 0 .913.314 1.685.93 2.297.634.614 1.389.914 2.306.914.909 0 1.68-.308 2.29-.914.627-.607.944-1.38.944-2.297zm-3.234-5.322c1.536 0 2.852.52 3.91 1.547 1.07 1.022 1.612 2.292 1.612 3.775 0 1.475-.542 2.74-1.612 3.762-1.064 1.017-2.38 1.532-3.91 1.532-1.526 0-2.846-.515-3.925-1.531-1.061-1.029-1.598-2.293-1.598-3.763 0-1.478.537-2.748 1.597-3.775 1.089-1.042 2.374-1.547 3.926-1.547zm-33.954.223l.009.079 1.024 10.09h-2.211l-.582-5.199-2.357 5.2h-1.365l-2.373-5.2-.58 5.2h-2.212l1.032-10.17H71.8l.022.055 2.812 6.708 2.85-6.763h1.957zM61.556 15.56v2.093h5.74v2.01h-8.013V9.492h7.983v2.01h-5.71v2.077h5.016v1.98h-5.016zm-6.63 4.102h2.272V9.493h-2.273v10.17zM27.72 15.52l-1.36-3.247-1.374 3.247h2.734zm-.33-6.027l.022.052 4.518 10.117h-2.46l-.892-2.133h-4.435l-.908 2.133h-2.46l4.541-10.169h2.073zM38.86 15.1V9.493h2.272V15.1c0 1.424-.417 2.588-1.239 3.46-.842.892-1.915 1.326-3.283 1.326-1.385 0-2.515-.446-3.36-1.326-.843-.877-1.27-2.041-1.27-3.46V9.493h2.273V15.1c0 1.624.924 2.672 2.357 2.672 1.367 0 2.25-1.048 2.25-2.672zm-31.504-.522c0-.948-.308-1.678-.94-2.233-.63-.567-1.456-.843-2.525-.843h-1.62v6.151h1.62c1.048 0 1.898-.278 2.525-.829.632-.568.94-1.303.94-2.246zM3.892 9.493c1.723 0 3.126.475 4.17 1.412 1.05.926 1.584 2.162 1.584 3.673 0 1.505-.533 2.746-1.585 3.688-1.048.927-2.451 1.396-4.17 1.396H0V9.493h3.892z" mask="url(#b)"/>
    </g>
</svg>
